<svg id="Layer_1" data-name="Layer 1" xmlns="http://www.w3.org/2000/svg" viewBox="0 0 158.42 40.51"><defs><style>.cls-1{fill:#fff;}</style></defs><title>M5-logo-blanco</title><polygon class="cls-1" points="70.91 0.2 66.33 15.07 55.76 15.07 61.37 0.2 49.34 0.2 40.65 27.67 37.76 19.44 44.57 0.2 34.41 0.2 30.66 12.63 26.97 0.2 16.8 0.2 23.5 19.44 20.72 27.67 11.98 0.2 0 0.2 15.22 40.51 24.81 40.51 30.66 26.08 36.56 40.51 46.16 40.51 52.12 24.72 63.57 24.72 58.79 40.51 70.57 40.51 81.98 0.2 70.91 0.2"/><path class="cls-1" d="M413.24,379.36h3.43l.57,7.92,1.15-2.41-.58-5.51h2.89l.16,3.56,1.68-3.56h2.91l-3,5.51.18,2.41,3.91-7.92H430l-6.73,11.55h-2.62l-.64-4.14-2.35,4.14h-2.62Z" transform="translate(-320.02 -379.36)"/><path class="cls-1" d="M430.82,379.36h7.71l-.59,2.76H433.4l-.34,1.63h3.87l-.55,2.57h-3.87l-.39,1.82h4.68l-.58,2.77h-7.86Z" transform="translate(-320.02 -379.36)"/><path class="cls-1" d="M440.17,379.36h6.46a1.68,1.68,0,0,1,1.08.34,2.14,2.14,0,0,1,.65.88,2.91,2.91,0,0,1,.22,1.15,3.48,3.48,0,0,1-.26,1.28,3.64,3.64,0,0,1-.76,1.16,3.31,3.31,0,0,1-1.21.81,2.17,2.17,0,0,1,1.12.81,2.54,2.54,0,0,1,.39,1.46,3.31,3.31,0,0,1-.38,1.66,3.07,3.07,0,0,1-1.05,1.13,4.63,4.63,0,0,1-1.52.65,7.42,7.42,0,0,1-1.78.22h-5.42Zm3.53,8.88a1,1,0,0,0,.71-.32,1.28,1.28,0,0,0,.23-.38,1.36,1.36,0,0,0,.09-.51,1.06,1.06,0,0,0-.07-.37.55.55,0,0,0-.18-.26.38.38,0,0,0-.27-.1h-2.35l-.4,1.94Zm.6-4.41a1,1,0,0,0,.33-.06.9.9,0,0,0,.31-.18,1.12,1.12,0,0,0,.23-.35,1.55,1.55,0,0,0,.09-.57.65.65,0,0,0-.14-.47.47.47,0,0,0-.35-.14h-2l-.39,1.77Z" transform="translate(-320.02 -379.36)"/><path class="cls-1" d="M409.26,398.88h3.17l-.91,4.26H415l.91-4.26h3.17l-2.46,11.54h-3.17l1-4.52h-3.45l-1,4.52H406.8Z" transform="translate(-320.02 -379.36)"/><path class="cls-1" d="M423.55,410.5a4.5,4.5,0,0,1-1.91-.39,4.17,4.17,0,0,1-1.4-1.08,5,5,0,0,1-.87-1.56,5.83,5.83,0,0,1,.08-3.86,7,7,0,0,1,1-1.88A7.75,7.75,0,0,1,422,400.2a7.41,7.41,0,0,1,1.92-1,6.39,6.39,0,0,1,2.17-.38,4.42,4.42,0,0,1,1.9.4,4.28,4.28,0,0,1,1.4,1.08,4.73,4.73,0,0,1,.85,1.56,5.8,5.8,0,0,1-.08,3.85,7.21,7.21,0,0,1-1,1.87,8,8,0,0,1-1.53,1.54,7.15,7.15,0,0,1-1.92,1A6.39,6.39,0,0,1,423.55,410.5Zm.62-2.81a2.57,2.57,0,0,0,1.37-.36,3.22,3.22,0,0,0,1-.93,4.24,4.24,0,0,0,.6-1.25,4.55,4.55,0,0,0,.19-1.3,3.08,3.08,0,0,0-.19-1.11,1.63,1.63,0,0,0-1.66-1.13,2.52,2.52,0,0,0-1.35.35,3.07,3.07,0,0,0-1,.92,4.69,4.69,0,0,0-.8,2.53,3.43,3.43,0,0,0,.19,1.13,1.81,1.81,0,0,0,.6.83A1.61,1.61,0,0,0,424.17,407.69Z" transform="translate(-320.02 -379.36)"/><path class="cls-1" d="M434.52,410.5a8.39,8.39,0,0,1-2.43-.37,7.36,7.36,0,0,1-2.09-1l1.95-2.79.23.2a4.94,4.94,0,0,0,.72.44,7.37,7.37,0,0,0,1.05.44,3.84,3.84,0,0,0,1.22.19,1.48,1.48,0,0,0,.55-.08.47.47,0,0,0,.24-.22.87.87,0,0,0,.05-.28.53.53,0,0,0-.31-.47,3.19,3.19,0,0,0-.78-.34c-.32-.1-.66-.22-1-.37a5.48,5.48,0,0,1-1.19-.63,2.4,2.4,0,0,1-.71-.82,2.45,2.45,0,0,1-.23-1.08,4.15,4.15,0,0,1,.43-1.93,4.26,4.26,0,0,1,1.16-1.43,5.5,5.5,0,0,1,1.63-.89,5.7,5.7,0,0,1,1.82-.31,5.44,5.44,0,0,1,1.53.21,7.87,7.87,0,0,1,1.32.49c.4.2.75.38,1,.56l-1.92,2.62s0-.06-.2-.17a4.28,4.28,0,0,0-.61-.36,6,6,0,0,0-.88-.37,3,3,0,0,0-1-.16,1.25,1.25,0,0,0-.43.07.68.68,0,0,0-.32.22.62.62,0,0,0-.11.39.47.47,0,0,0,.22.4,3.14,3.14,0,0,0,.61.3l.89.33a8.89,8.89,0,0,1,1.38.63,2.66,2.66,0,0,1,.92.87,2.48,2.48,0,0,1,.32,1.32,4.33,4.33,0,0,1-.45,2.06,3.85,3.85,0,0,1-1.21,1.35,5.28,5.28,0,0,1-1.64.73A7.27,7.27,0,0,1,434.52,410.5Z" transform="translate(-320.02 -379.36)"/><path class="cls-1" d="M444.36,401.64h-3.11l.59-2.76h9.37l-.59,2.76h-3.09l-1.87,8.78h-3.17Z" transform="translate(-320.02 -379.36)"/><path class="cls-1" d="M452.39,398.88h3.17l-2.45,11.54h-3.17Z" transform="translate(-320.02 -379.36)"/><path class="cls-1" d="M457.55,398.88H460l2.93,5.87,1.24-5.87h3.17l-2.46,11.54h-2.5l-2.93-5.67-1.21,5.67h-3.17Z" transform="translate(-320.02 -379.36)"/><path class="cls-1" d="M471.65,410.5a4.37,4.37,0,0,1-1.68-.31,3.82,3.82,0,0,1-1.35-.92,4.21,4.21,0,0,1-.91-1.47,5.75,5.75,0,0,1-.32-2,6.47,6.47,0,0,1,.59-2.77,7.14,7.14,0,0,1,1.59-2.24,7.6,7.6,0,0,1,2.27-1.5,6.59,6.59,0,0,1,2.63-.54,4.71,4.71,0,0,1,2.55.68,3.14,3.14,0,0,1,1.41,1.85l-2.73,1.8A1.9,1.9,0,0,0,475,402a2,2,0,0,0-1.24-.41,2.52,2.52,0,0,0-1.16.29,3.25,3.25,0,0,0-1,.82,4.37,4.37,0,0,0-.68,1.22,4.28,4.28,0,0,0-.25,1.49,2.89,2.89,0,0,0,.22,1.18,1.68,1.68,0,0,0,1.65,1.08,3.1,3.1,0,0,0,1.44-.38,5.69,5.69,0,0,0,1.39-1.08l-.67,3.09a5.59,5.59,0,0,1-1.49.89A4.07,4.07,0,0,1,471.65,410.5Zm3.48-3.95h-2l.47-2.27h4.62l-1.32,6.14h-2.6Z" transform="translate(-320.02 -379.36)"/><polygon class="cls-1" points="156.31 37.9 85.77 37.9 85.35 40.03 155.85 40.03 156.31 37.9"/></svg>